# xmcd
#
# Track frame offsets:
#	150
#	12981
#	22831
#	35538
#	45326
#	60587
#	70301
#	81222
#	98933
#	110892
#	126115
#	143185
#	158112
#	173171
#	191022
#	204554
#
# Disc length: 2938 seconds
#
# Revision: 1
# Processed by: cddbd v1.5.2PL0 Copyright (c) Steve Scherf et al.
# Submitted via: audiograbber 1.83.01
#
DISCID=d90b7810
DTITLE=Margo Smith - Swiss Cowboy and Country
DYEAR=1900
DGENRE=Country
TTITLE0=Chime Bells
TTITLE1=He Taught Me How To Yodel
TTITLE2=Cowboy's Sweetheart
TTITLE3=Indian Love Call
TTITLE4=Hand Clappin' Foot Stompin' Country Music
TTITLE5=Ridin' High
TTITLE6=My Little Lady Who
TTITLE7=Help Me Make It Through the Day
TTITLE8=Get Back In The Swing
TTITLE9=Way Back When
TTITLE10=Except For You
TTITLE11=Shuffle Song, The
TTITLE12=Sadie
TTITLE13=Swiss, Cowboy, or Country
TTITLE14=Boogie Woogie Yodelers Blues
TTITLE15=Played Him Like A Fiddle
EXTD=
EXTT0=
EXTT1=
EXTT2=
EXTT3=
EXTT4=
EXTT5=
EXTT6=
EXTT7=
EXTT8=
EXTT9=
EXTT10=
EXTT11=
EXTT12=
EXTT13=
EXTT14=
EXTT15=
PLAYORDER=
